<svg xmlns="http://www.w3.org/2000/svg" xmlns:xlink="http://www.w3.org/1999/xlink" width="130.113" height="130.788" viewBox="0 0 130.113 130.788">
  <defs>
    <filter id="_52" x="0" y="0" width="130.113" height="130.788" filterUnits="userSpaceOnUse">
      <feOffset dx="3" dy="3" input="SourceAlpha"/>
      <feGaussianBlur stdDeviation="3" result="blur"/>
      <feFlood flood-opacity="0.161"/>
      <feComposite operator="in" in2="blur"/>
      <feComposite in="SourceGraphic"/>
    </filter>
  </defs>
  <g id="Grupo_1194394" data-name="Grupo 1194394" transform="translate(-5701.324 6205.665)">
    <g transform="matrix(1, 0, 0, 1, 5701.32, -6205.66)" filter="url(#_52)">
      <g id="_52-2" data-name="52" transform="translate(6 6)" fill="#fff" stroke="#fff" stroke-width="3">
        <ellipse cx="56.056" cy="56.394" rx="56.056" ry="56.394" stroke="none"/>
        <ellipse cx="56.056" cy="56.394" rx="54.556" ry="54.894" fill="none"/>
      </g>
    </g>
    <g id="normas" transform="translate(5731.229 -6177.655)">
      <g id="Grupo_1194388" data-name="Grupo 1194388" transform="translate(0.537 1.048)">
        <path id="Trazado_1100977" data-name="Trazado 1100977" d="M195,49.806l3.994-6.918a2.812,2.812,0,1,1,4.869,2.814c-3.175,5.5-5.14,8.9-8.311,14.4a4.517,4.517,0,0,0-.635,2.372v3.206H178.08V56.53a5.148,5.148,0,0,1,5.14-5.14h9.035A3.1,3.1,0,0,0,195,49.806Z" transform="translate(-156.932 -36.961)" fill="#0593fc" fill-rule="evenodd"/>
        <path id="Trazado_1100978" data-name="Trazado 1100978" d="M216.056,18.932a5.566,5.566,0,1,0-5.566-5.566A5.576,5.576,0,0,0,216.056,18.932Z" transform="translate(-184.989 -7.8)" fill="#fbbd80" fill-rule="evenodd"/>
        <path id="Trazado_1100979" data-name="Trazado 1100979" d="M147,347.39h2.874a6.033,6.033,0,0,1,6.016,6.016v10.957a.843.843,0,0,1-.838.841H141.821a.844.844,0,0,1-.841-.841V353.406A6.036,6.036,0,0,1,147,347.39Z" transform="translate(-124.815 -301.78)" fill="#ffd400" fill-rule="evenodd"/>
        <path id="Trazado_1100980" data-name="Trazado 1100980" d="M258.008,347.39h2.874a6.033,6.033,0,0,1,6.016,6.016v10.957a.843.843,0,0,1-.838.841H252.831a.844.844,0,0,1-.841-.841V353.406a6.034,6.034,0,0,1,6.018-6.016Z" transform="translate(-220.915 -301.78)" fill="#ffd400" fill-rule="evenodd"/>
        <path id="Trazado_1100981" data-name="Trazado 1100981" d="M165.047,292.464a4.877,4.877,0,1,0-4.877-4.877A4.888,4.888,0,0,0,165.047,292.464Z" transform="translate(-141.427 -245.787)" fill="#fbbd80" fill-rule="evenodd"/>
        <path id="Trazado_1100982" data-name="Trazado 1100982" d="M94.39,433.53H91.516a6.037,6.037,0,0,0-6.016,6.02v2.635a.841.841,0,0,0,.838.838H99.568a.841.841,0,0,0,.838-.838V439.55A6.037,6.037,0,0,0,94.39,433.53Z" transform="translate(-76.786 -376.351)" fill="#0593fc" fill-rule="evenodd"/>
        <path id="Trazado_1100983" data-name="Trazado 1100983" d="M202.508,433.53h2.874a6.037,6.037,0,0,1,6.016,6.02v2.635a.841.841,0,0,1-.838.838H197.331a.843.843,0,0,1-.841-.838V439.55A6.038,6.038,0,0,1,202.508,433.53Z" transform="translate(-172.869 -376.351)" fill="#ff4646" fill-rule="evenodd"/>
        <path id="Trazado_1100984" data-name="Trazado 1100984" d="M316.374,433.53H313.5a6.04,6.04,0,0,0-6.02,6.02v2.635a.843.843,0,0,0,.841.838H321.55a.841.841,0,0,0,.838-.838V439.55A6.036,6.036,0,0,0,316.374,433.53Z" transform="translate(-268.952 -376.351)" fill="#0593fc" fill-rule="evenodd"/>
        <path id="Trazado_1100985" data-name="Trazado 1100985" d="M28.478,123.207a7.858,7.858,0,1,0-7.858-7.858A7.873,7.873,0,0,0,28.478,123.207Z" transform="translate(-20.62 -94.101)" fill="#70da40" fill-rule="evenodd"/>
        <path id="Trazado_1100986" data-name="Trazado 1100986" d="M109.547,378.634a4.877,4.877,0,1,0-4.877-4.877A4.888,4.888,0,0,0,109.547,378.634Z" transform="translate(-93.381 -320.384)" fill="#fbbd80" fill-rule="evenodd"/>
        <path id="Trazado_1100987" data-name="Trazado 1100987" d="M220.547,378.634a4.877,4.877,0,1,0-4.877-4.877A4.888,4.888,0,0,0,220.547,378.634Z" transform="translate(-189.473 -320.384)" fill="#fbbd80" fill-rule="evenodd"/>
        <path id="Trazado_1100988" data-name="Trazado 1100988" d="M331.557,378.634a4.877,4.877,0,1,0-4.877-4.877A4.884,4.884,0,0,0,331.557,378.634Z" transform="translate(-285.573 -320.384)" fill="#fbbd80" fill-rule="evenodd"/>
        <path id="Trazado_1100989" data-name="Trazado 1100989" d="M276.047,292.464a4.877,4.877,0,1,0-4.877-4.877A4.884,4.884,0,0,0,276.047,292.464Z" transform="translate(-237.519 -245.787)" fill="#fbbd80" fill-rule="evenodd"/>
      </g>
      <path id="Trazado_1100990" data-name="Trazado 1100990" d="M38.844,30.812H55.676a1.076,1.076,0,0,0,1.076-1.076v-3.21a3.486,3.486,0,0,1,.492-1.831l2.6-4.5c1.866-3.231,3.492-6.052,5.715-9.9a3.886,3.886,0,0,0-6.732-3.886l-3.994,6.918a2.018,2.018,0,0,1-1.806,1.042H43.984a6.223,6.223,0,0,0-6.216,6.216v9.149A1.075,1.075,0,0,0,38.844,30.812Zm1.074-10.224a4.068,4.068,0,0,1,4.064-4.064H53.02a4.144,4.144,0,0,0,3.668-2.117,0,0,0,0,1,0,0l3.994-6.918a1.736,1.736,0,0,1,3.007,1.734c-2.221,3.848-3.849,6.667-5.715,9.9l-2.6,4.5a5.6,5.6,0,0,0-.779,2.905v2.134H45.569v-5.5a1.076,1.076,0,1,0-2.152,0v5.5h-3.5Zm8.854-7.305a6.642,6.642,0,1,0-6.642-6.642A6.649,6.649,0,0,0,48.772,13.283Zm0-11.132a4.491,4.491,0,1,1-4.491,4.49,4.495,4.495,0,0,1,4.491-4.49Zm19.675,55.8a5.95,5.95,0,0,0-4.765-9.516q-.155,0-.31.008a7.188,7.188,0,0,0-2.383-2.058,5.955,5.955,0,1,0-9.528,0,7.2,7.2,0,0,0-2.381,2.059c-.1-.005-.205-.008-.309-.008s-.207,0-.31.008a7.188,7.188,0,0,0-2.383-2.058,5.952,5.952,0,1,0-9.527,0,7.169,7.169,0,0,0-2.383,2.06c-.1-.005-.205-.008-.309-.008a5.95,5.95,0,0,0-4.767,9.514,7.068,7.068,0,0,0-3.765,6.264v2.635a1.915,1.915,0,0,0,1.913,1.913H40.471a1.9,1.9,0,0,0,.841-.2,1.891,1.891,0,0,0,.838.2H55.379a1.9,1.9,0,0,0,.841-.2,1.891,1.891,0,0,0,.838.2H70.287A1.917,1.917,0,0,0,72.2,66.856V64.221a7.046,7.046,0,0,0-3.757-6.266Zm-.964-3.563a3.8,3.8,0,1,1-3.8-3.8A3.805,3.805,0,0,1,67.483,54.392ZM56.228,39.021a3.8,3.8,0,1,1-3.8,3.8A3.805,3.805,0,0,1,56.228,39.021Zm-3,8.94a5.933,5.933,0,0,0,6,0,4.987,4.987,0,0,1,1.82,1.095,5.944,5.944,0,0,0-2.131,8.9,7.075,7.075,0,0,0-2.688,2.5,7.08,7.08,0,0,0-2.689-2.5,5.946,5.946,0,0,0-2.131-8.9A5.022,5.022,0,0,1,53.226,47.96Zm-8.255,6.432a3.8,3.8,0,1,1,3.8,3.8,3.805,3.805,0,0,1-3.8-3.8ZM41.318,39.021a3.8,3.8,0,1,1-3.8,3.8A3.805,3.805,0,0,1,41.318,39.021Zm-3,8.94a5.93,5.93,0,0,0,6,0,5.007,5.007,0,0,1,1.821,1.1,5.944,5.944,0,0,0-2.13,8.9,7.069,7.069,0,0,0-2.689,2.5,7.069,7.069,0,0,0-2.689-2.5,5.946,5.946,0,0,0-2.131-8.9,5,5,0,0,1,1.821-1.093Zm-4.455,2.63a3.8,3.8,0,1,1-3.8,3.8A3.805,3.805,0,0,1,33.864,50.59Zm-6.38,13.628a5,5,0,0,1,3.382-4.686,5.929,5.929,0,0,0,5.992,0,5,5,0,0,1,3.383,4.686v2.4H27.484Zm14.91,0a5,5,0,0,1,3.382-4.686,5.933,5.933,0,0,0,5.992,0,5,5,0,0,1,3.383,4.686v2.4H42.393v-2.4Zm27.666,2.4H57.3v-2.4a5,5,0,0,1,3.381-4.686,5.935,5.935,0,0,0,5.993,0,5,5,0,0,1,3.383,4.686v2.395ZM80.607,23.027l-3.814,3.818a1.076,1.076,0,1,1-1.523-1.519l1.981-1.982H65.486a1.076,1.076,0,0,1,0-2.152H77.25l-1.978-1.978a1.076,1.076,0,1,1,1.52-1.522l3.814,3.814a1.073,1.073,0,0,1,0,1.52Zm-46.118-.76A8.935,8.935,0,1,0,25.553,31.2,8.946,8.946,0,0,0,34.49,22.267Zm-15.72,0a6.785,6.785,0,1,1,6.783,6.787,6.79,6.79,0,0,1-6.783-6.787ZM30.33,20.4l-5.254,5.25a1.075,1.075,0,0,1-1.52,0L20.78,22.878a1.075,1.075,0,0,1,1.52-1.52l2.015,2.015,4.494-4.49A1.076,1.076,0,0,1,30.33,20.4Z" transform="translate(-16.62 0)"/>
    </g>
  </g>
</svg>
